<svg width="25" height="32" viewBox="0 0 25 32" fill="none" xmlns="http://www.w3.org/2000/svg">
<circle cx="12.5" cy="16" r="12" stroke="#4DFFDF"/>
<path d="M7.544 14.996H7.928C8.144 14.996 8.356 14.98 8.564 14.948C8.78 14.908 8.976 14.84 9.152 14.744C9.328 14.648 9.468 14.52 9.572 14.36C9.684 14.192 9.74 13.976 9.74 13.712C9.74 13.52 9.704 13.348 9.632 13.196C9.56 13.044 9.46 12.916 9.332 12.812C9.212 12.708 9.068 12.628 8.9 12.572C8.74 12.516 8.572 12.488 8.396 12.488C8.044 12.488 7.752 12.588 7.52 12.788C7.288 12.988 7.128 13.252 7.04 13.58L5.684 13.232C5.756 12.944 5.876 12.684 6.044 12.452C6.22 12.212 6.428 12.008 6.668 11.84C6.916 11.664 7.192 11.528 7.496 11.432C7.8 11.336 8.12 11.288 8.456 11.288C8.824 11.288 9.172 11.34 9.5 11.444C9.836 11.54 10.128 11.688 10.376 11.888C10.632 12.08 10.832 12.32 10.976 12.608C11.12 12.896 11.192 13.232 11.192 13.616C11.192 14.072 11.052 14.48 10.772 14.84C10.5 15.192 10.132 15.424 9.668 15.536V15.56C10.188 15.664 10.608 15.9 10.928 16.268C11.256 16.628 11.42 17.072 11.42 17.6C11.42 18.04 11.332 18.424 11.156 18.752C10.988 19.08 10.76 19.352 10.472 19.568C10.192 19.784 9.876 19.944 9.524 20.048C9.172 20.16 8.816 20.216 8.456 20.216C8.096 20.216 7.756 20.176 7.436 20.096C7.116 20.024 6.82 19.908 6.548 19.748C6.284 19.588 6.048 19.38 5.84 19.124C5.64 18.868 5.484 18.564 5.372 18.212L6.716 17.792C6.82 18.128 7.012 18.412 7.292 18.644C7.58 18.876 7.952 18.992 8.408 18.992C8.592 18.992 8.776 18.968 8.96 18.92C9.152 18.864 9.32 18.78 9.464 18.668C9.616 18.556 9.736 18.412 9.824 18.236C9.92 18.06 9.968 17.844 9.968 17.588C9.968 17.316 9.9 17.088 9.764 16.904C9.636 16.712 9.472 16.564 9.272 16.46C9.072 16.348 8.848 16.268 8.6 16.22C8.36 16.172 8.128 16.148 7.904 16.148H7.544V14.996ZM16.3802 18.236H12.4562V16.964L16.0682 11.504H17.7962V17H18.9842V18.236H17.7962V20H16.3802V18.236ZM16.3802 13.196H16.3562L13.9442 17H16.3802V13.196Z" fill="#4DFFDF"/>
</svg>
